<?xml version="1.0" standalone="no"?>
<!DOCTYPE svg PUBLIC "-//W3C//DTD SVG 20010904//EN"
 "http://www.w3.org/TR/2001/REC-SVG-20010904/DTD/svg10.dtd">
<svg version="1.0" xmlns="http://www.w3.org/2000/svg"
 width="512.000000pt" height="512.000000pt" viewBox="0 0 512.000000 512.000000"
 preserveAspectRatio="xMidYMid meet">

<g transform="translate(0.000000,512.000000) scale(0.100000,-0.100000)"
fill="#000000" stroke="none">
<path d="M2310 4469 c-41 -5 -82 -10 -90 -12 -8 -1 12 -19 45 -39 34 -20 125
-82 204 -138 78 -55 155 -103 169 -106 52 -11 55 -13 43 -28 -9 -10 -6 -17 12
-29 12 -8 83 -62 156 -121 73 -58 137 -106 141 -106 5 0 11 14 15 30 8 36 29
51 115 85 46 18 67 22 74 14 12 -12 13 -11 -87 -80 -55 -39 -58 -43 -51 -72
10 -49 23 -70 37 -59 7 5 31 13 55 17 25 4 57 19 75 34 34 30 92 35 108 10 6
-10 11 -10 22 -1 8 7 23 9 32 5 13 -4 16 -3 11 6 -14 22 54 80 114 98 30 9 62
16 70 16 8 0 32 12 52 29 31 23 42 27 57 18 11 -5 32 -10 48 -10 l28 1 -30 25
c-16 14 -77 57 -134 95 -248 167 -532 275 -827 314 -123 16 -341 18 -464 4z
m778 -311 c18 -18 15 -25 -14 -32 -35 -9 -50 6 -29 28 20 19 27 20 43 4z m480
-35 c2 -9 -9 -13 -37 -13 -39 0 -55 13 -28 24 21 8 60 2 65 -11z"/>
<path d="M2050 4423 c-186 -47 -484 -172 -473 -198 2 -8 -6 -19 -19 -26 -13
-7 -40 -30 -61 -51 -20 -21 -58 -48 -84 -61 -42 -20 -74 -55 -89 -99 -6 -18
-23 -23 -101 -34 -43 -5 -58 -13 -94 -50 l-42 -43 26 -27 c15 -15 30 -38 33
-51 4 -12 11 -23 16 -23 6 0 8 11 3 28 -17 71 -17 87 5 115 15 19 28 26 39 21
9 -4 26 -6 38 -6 12 1 25 -3 28 -8 3 -6 19 -10 34 -10 16 0 39 -8 52 -18 13
-11 36 -22 51 -26 23 -5 29 -13 34 -45 4 -27 14 -43 30 -52 45 -24 38 -98 -8
-86 -14 4 -18 -1 -18 -22 0 -15 -6 -36 -14 -46 -13 -18 -15 -18 -52 -2 -22 9
-52 21 -67 27 l-29 10 31 35 c56 65 32 125 -50 125 -32 0 -36 -3 -32 -20 10
-38 -16 -79 -58 -92 -22 -6 -39 -15 -39 -19 0 -4 -25 -36 -55 -72 -30 -35 -55
-69 -55 -75 0 -34 28 -67 78 -89 37 -16 56 -31 63 -50 l11 -28 15 28 c8 16 12
31 9 35 -4 3 2 15 13 26 13 15 20 40 23 88 2 37 6 70 9 72 3 3 31 -4 63 -17
47 -18 58 -27 63 -50 5 -25 10 -28 32 -24 29 6 39 -5 77 -78 15 -27 35 -58 45
-68 14 -13 19 -32 19 -66 0 -31 5 -53 15 -61 20 -16 19 -49 -1 -57 -20 -7 -70
21 -68 39 1 7 5 21 9 31 12 29 -46 22 -69 -9 -15 -22 -16 -30 -6 -52 10 -22 9
-28 -7 -40 -10 -7 -28 -10 -41 -7 -30 7 -68 -19 -75 -53 -4 -18 -18 -33 -40
-45 -26 -14 -36 -27 -40 -52 -5 -32 -22 -58 -63 -99 -33 -33 -43 -60 -42 -110
1 -65 -13 -75 -46 -31 -27 35 -27 35 -106 35 -73 0 -80 -2 -99 -26 -12 -15
-26 -45 -33 -67 -11 -38 -11 -41 16 -63 28 -25 56 -32 56 -14 0 5 9 14 20 20
29 16 60 -4 60 -38 0 -17 11 -37 30 -55 21 -20 30 -38 30 -60 0 -48 13 -61 62
-63 35 -1 48 4 69 26 21 23 33 27 68 25 26 -1 50 -10 65 -24 12 -11 29 -21 37
-21 37 0 200 -134 219 -180 7 -17 28 -32 69 -47 32 -13 64 -23 71 -23 17 0 81
-30 103 -48 27 -23 23 -99 -8 -144 -14 -20 -25 -41 -25 -46 0 -5 -6 -15 -14
-21 -8 -7 -17 -28 -21 -49 -22 -121 -25 -130 -56 -143 -25 -10 -39 -30 -75
-106 -36 -76 -50 -97 -73 -106 -23 -8 -30 -19 -35 -48 -4 -26 -14 -42 -35 -55
-16 -11 -41 -34 -56 -52 -26 -31 -27 -37 -21 -96 5 -55 4 -65 -14 -81 -25 -23
-25 -45 -1 -95 l18 -38 -25 -7 c-49 -12 -75 10 -105 88 -32 85 -47 218 -27
242 7 9 10 24 6 37 -22 72 -23 91 -10 141 8 29 15 95 15 148 1 103 -13 146
-70 216 -69 85 -73 93 -69 131 3 26 -1 42 -14 56 -24 26 -23 68 3 140 22 64
18 114 -9 122 -38 12 -79 39 -105 71 -16 18 -37 33 -47 33 -10 0 -32 11 -48
25 -17 14 -49 32 -71 40 -98 34 -109 43 -121 98 -7 29 -19 60 -28 69 -14 17
-16 17 -28 0 -13 -16 -16 -15 -39 12 -15 15 -29 25 -33 22 -14 -15 -6 -381 11
-491 45 -289 144 -549 300 -788 227 -348 599 -641 979 -772 l104 -36 70 42
c274 166 590 403 1008 757 166 141 583 557 763 760 l56 63 -22 23 c-27 29 -15
43 15 15 12 -11 24 -16 28 -11 3 5 -6 20 -19 32 -20 19 -25 33 -25 72 0 50
-23 99 -58 124 -11 7 -23 29 -26 49 -4 21 -16 41 -30 50 -21 14 -26 14 -55 -2
-18 -11 -35 -31 -42 -50 -6 -18 -16 -33 -23 -33 -16 0 -44 -49 -62 -109 -8
-28 -19 -53 -25 -56 -14 -9 -39 14 -39 36 0 17 -81 194 -99 215 -5 6 -16 25
-25 43 -16 31 -17 31 -86 29 -67 -3 -69 -4 -63 -26 18 -74 -81 -172 -183 -180
-46 -4 -54 -2 -66 19 -59 98 -91 153 -103 176 -12 22 -15 24 -15 9 0 -11 11
-34 26 -53 14 -18 30 -48 36 -66 6 -17 25 -54 42 -81 30 -47 31 -48 72 -42 25
3 48 1 58 -7 31 -23 -11 -118 -106 -238 -35 -44 -45 -78 -57 -198 -8 -73 -18
-109 -45 -166 -19 -40 -38 -85 -42 -99 -3 -15 -14 -31 -23 -36 -10 -5 -23 -26
-29 -47 -6 -21 -32 -62 -58 -91 -43 -49 -48 -52 -93 -52 -26 0 -55 6 -64 12
-22 17 -56 100 -68 165 -6 29 -19 73 -30 99 -18 39 -20 58 -14 123 6 65 3 89
-19 165 -15 49 -26 114 -26 146 l0 57 -39 7 c-21 3 -44 13 -51 21 -17 21 -46
19 -70 -5 -37 -37 -112 -23 -169 31 -58 56 -83 141 -72 242 9 77 23 111 78
191 18 26 33 58 33 70 0 48 60 113 93 100 8 -3 49 2 90 10 42 9 93 16 115 16
34 0 39 -3 47 -32 13 -43 103 -95 134 -78 11 5 60 10 109 10 84 0 89 1 100 24
10 22 8 25 -18 36 -15 6 -39 10 -53 8 -34 -4 -67 28 -68 66 -2 30 -2 30 -6 4
-2 -15 1 -36 7 -48 6 -11 8 -25 5 -30 -8 -13 -75 38 -75 57 0 7 -7 30 -16 51
l-16 37 -12 -25 c-21 -48 -49 -81 -58 -72 -6 6 -5 18 4 31 12 20 10 24 -12 41
-31 24 -40 25 -40 4 0 -10 -7 -14 -22 -12 -17 2 -24 11 -26 34 -3 27 -6 30
-32 26 -33 -5 -58 -30 -93 -92 -28 -50 -49 -58 -108 -41 -32 10 -37 16 -43 51
-10 66 23 110 85 110 21 0 39 3 39 6 0 14 -24 51 -44 66 -19 15 -19 19 -6 32
8 8 29 22 45 30 l30 16 -46 0 -46 0 7 40 c4 22 13 46 19 54 10 12 10 19 -2 36
-8 12 -13 29 -11 38 12 66 15 72 34 72 14 0 20 -7 20 -24 0 -13 7 -29 15 -36
8 -6 20 -38 26 -71 6 -32 15 -59 19 -59 4 0 15 10 26 21 10 12 29 25 40 29 27
11 29 54 4 90 -10 14 -21 46 -24 72 -5 42 -2 51 27 87 18 22 39 43 48 46 9 3
21 16 27 30 31 67 148 155 207 155 13 0 37 -11 53 -25 17 -14 55 -36 85 -49
30 -14 57 -32 60 -40 9 -23 22 -20 35 9 13 29 24 31 46 10 12 -12 20 -13 40
-3 14 6 26 15 26 19 0 6 -174 148 -335 274 -118 91 -486 346 -540 372 -14 7
-37 6 -75 -4z m26 -153 c22 0 49 -6 59 -14 18 -13 18 -14 0 -32 -18 -19 -17
-19 43 -27 73 -10 80 -26 23 -58 -40 -22 -55 -55 -45 -96 3 -11 -1 -25 -10
-32 -9 -8 -16 -27 -16 -43 0 -17 -6 -42 -14 -56 -8 -15 -19 -40 -25 -56 -11
-26 -15 -28 -51 -22 -39 6 -55 -6 -25 -18 14 -5 13 -10 -7 -36 -23 -32 -116
-91 -156 -100 -18 -4 -28 -18 -42 -59 -10 -29 -28 -64 -41 -76 -23 -23 -25
-23 -59 -7 -25 13 -36 26 -43 52 -4 19 -15 56 -23 81 -13 41 -13 51 -1 81 12
29 12 35 0 47 -8 7 -11 21 -8 31 3 11 0 20 -10 24 -8 3 -15 17 -15 31 0 40
-27 85 -53 87 -12 1 -29 2 -37 4 -8 1 -25 2 -38 3 -30 1 -41 30 -18 47 16 11
15 13 -10 16 -43 5 -40 26 6 38 27 7 44 19 49 33 20 51 89 82 211 93 55 5 68
10 76 28 8 18 20 22 97 28 49 3 92 9 95 13 4 3 16 4 27 1 11 -3 38 -6 61 -6z
m428 -128 c7 -20 37 -39 71 -44 14 -2 21 -12 23 -36 3 -30 1 -32 -30 -32 -26
0 -37 -6 -50 -31 -18 -30 -18 -30 -43 -12 -15 11 -24 28 -25 45 0 23 -4 27
-22 25 -16 -1 -25 5 -31 24 -13 36 -3 59 27 59 14 0 28 5 31 10 10 17 43 11
49 -8z m-334 -432 c35 0 43 -11 31 -43 -14 -37 -61 -50 -97 -26 -29 19 -36 40
-22 71 7 14 13 15 34 8 14 -6 38 -10 54 -10z m-954 -66 c19 -15 18 -15 -3 -9
-16 4 -25 0 -33 -15 -6 -11 -15 -20 -21 -20 -16 0 -22 29 -9 45 16 19 41 19
66 -1z m952 -284 c-2 -8 -16 -16 -31 -18 -32 -4 -37 20 -10 50 17 19 18 19 30
1 8 -10 12 -24 11 -33z m-1022 -667 c-10 -10 -19 5 -10 18 6 11 8 11 12 0 2
-7 1 -15 -2 -18z m64 18 c0 -5 -7 -11 -15 -15 -9 -3 -15 0 -15 9 0 8 7 15 15
15 8 0 15 -4 15 -9z m50 -53 c0 -16 -23 -19 -37 -5 -22 21 -8 40 17 24 11 -6
20 -15 20 -19z m-44 -20 c68 -39 83 -68 36 -68 -38 0 -62 9 -62 24 -1 17 -72
46 -113 46 -40 0 -48 12 -19 30 29 18 96 5 158 -32z m134 -58 c0 -12 -28 -25
-36 -17 -9 9 6 27 22 27 8 0 14 -5 14 -10z m-180 -10 c0 -5 -9 -10 -20 -10
-11 0 -20 5 -20 10 0 6 9 10 20 10 11 0 20 -4 20 -10z m2414 -176 c13 -33 7
-45 -14 -34 -23 12 -27 50 -6 50 8 0 17 -7 20 -16z m-526 -480 c10 -58 0 -110
-34 -191 -23 -56 -67 -41 -76 25 -9 66 8 129 49 177 21 24 41 44 45 45 3 0 10
-25 16 -56z m-1513 -743 c7 -12 -12 -24 -25 -16 -11 7 -4 25 10 25 5 0 11 -4
15 -9z"/>
<path d="M3820 3966 c0 -15 16 -30 45 -40 16 -6 14 -1 -9 23 -34 35 -36 36
-36 17z"/>
<path d="M1032 3797 c-9 -11 -10 -17 -2 -22 15 -9 23 -1 18 21 -3 15 -4 16
-16 1z"/>
<path d="M4332 3119 c-22 -29 -32 -54 -32 -78 0 -39 -28 -103 -47 -109 -7 -2
-18 9 -24 24 -19 52 -29 56 -56 23 l-25 -30 22 -51 c27 -63 23 -128 -9 -162
-19 -20 -20 -24 -7 -29 9 -4 16 -1 16 6 1 7 6 2 13 -9 11 -21 15 -18 71 56 44
58 59 86 61 115 1 23 9 41 19 47 10 5 32 23 51 39 l33 30 -20 72 c-29 105 -30
105 -66 56z"/>
<path d="M4332 2760 l-103 -142 31 -41 c16 -22 30 -44 30 -47 0 -4 18 -25 39
-48 44 -46 111 -143 111 -161 0 -6 4 -11 9 -11 6 0 13 21 17 47 10 66 -3 406
-18 482 l-13 63 -103 -142z"/>
<path d="M3070 2804 c0 -15 66 -80 87 -86 34 -9 29 9 -16 53 -34 34 -71 51
-71 33z"/>
<path d="M4090 2655 c-8 -9 -25 -21 -38 -26 -18 -7 -22 -14 -17 -30 12 -36
-25 -147 -57 -174 l-28 -24 -25 25 c-13 13 -29 24 -35 24 -17 0 -11 -56 9 -81
24 -30 26 -28 138 110 47 59 92 113 99 121 11 13 10 20 -9 44 -21 26 -24 27
-37 11z"/>
<path d="M4158 2528 c-12 -18 -71 -91 -131 -162 -104 -125 -107 -130 -92 -152
8 -13 15 -32 15 -43 0 -35 -19 -33 -38 5 l-18 36 -86 -99 c-117 -135 -485
-503 -643 -643 -224 -198 -266 -233 -422 -356 -203 -160 -289 -222 -478 -348
-88 -58 -171 -114 -185 -123 l-25 -18 55 -12 c166 -38 413 -52 600 -32 175 17
460 85 460 109 0 6 12 10 28 10 34 0 212 81 317 145 134 81 264 183 381 300
102 101 244 277 280 346 14 28 14 29 -13 23 -73 -14 -72 -16 -97 92 -19 78
-15 113 18 158 35 49 110 116 128 116 10 0 25 11 34 25 22 34 99 85 128 85 24
0 38 31 52 116 6 39 4 41 -25 54 -29 12 -39 38 -13 33 6 -2 23 2 36 7 l25 9
-22 38 c-33 57 -128 174 -137 168 -13 -8 -42 33 -36 52 3 12 -7 31 -29 56 -20
20 -37 37 -39 37 -3 0 -15 -15 -28 -32z m11 -202 c15 -18 6 -95 -17 -149 -14
-33 -19 -38 -41 -34 -92 19 -101 43 -41 112 22 25 45 55 50 66 13 23 33 25 49
5z m84 -95 c2 -10 0 -26 -5 -35 -5 -9 -6 -25 -3 -35 5 -17 2 -19 -22 -12 -34
9 -42 41 -19 77 19 29 42 31 49 5z m157 5 c0 -17 -27 -28 -51 -21 -36 12 -20
35 23 35 17 0 28 -5 28 -14z m-355 -151 c32 -14 56 -28 54 -30 -5 -4 -132 24
-139 31 -3 4 18 23 26 24 1 0 27 -11 59 -25z"/>
</g>
</svg>
