<?xml version="1.0" standalone="no"?>
<!DOCTYPE svg PUBLIC "-//W3C//DTD SVG 20010904//EN"
 "http://www.w3.org/TR/2001/REC-SVG-20010904/DTD/svg10.dtd">
<svg version="1.0" xmlns="http://www.w3.org/2000/svg"
 width="512.000000pt" height="512.000000pt" viewBox="0 0 512.000000 512.000000"
 preserveAspectRatio="xMidYMid meet">
<metadata>
Created by potrace 1.16, written by Peter Selinger 2001-2019
</metadata>
<g transform="translate(0.000000,512.000000) scale(0.100000,-0.100000)"
fill="#000000" stroke="none">
<path d="M2969 5006 c-86 -30 -137 -94 -159 -197 -12 -56 -13 -56 -64 -72 -28
-9 -90 -36 -137 -60 l-86 -44 -59 31 c-49 25 -71 30 -129 31 -89 0 -136 -26
-221 -122 -84 -94 -104 -136 -104 -221 0 -60 4 -75 36 -128 19 -32 39 -63 43
-67 7 -7 -25 -104 -47 -146 -5 -8 -36 -22 -70 -31 -74 -21 -124 -53 -157 -102
-37 -55 -48 -115 -44 -235 4 -96 7 -113 32 -155 42 -72 84 -100 193 -128 39
-9 43 -14 63 -69 11 -32 21 -63 21 -70 0 -6 -16 -33 -35 -59 -74 -104 -70
-217 12 -320 113 -141 165 -175 264 -175 41 0 73 8 120 30 l64 29 53 -32 c44
-26 141 -68 224 -97 10 -3 20 -25 27 -57 15 -68 43 -122 83 -155 60 -51 88
-57 243 -53 135 3 143 4 183 31 54 35 88 88 110 167 l17 62 60 22 c33 12 94
39 135 60 l75 37 65 -30 c45 -22 80 -31 114 -31 91 0 124 17 213 107 99 101
123 147 123 231 0 68 -15 114 -54 165 -32 42 -32 46 1 129 25 64 29 69 67 79
89 22 111 33 152 75 60 59 77 123 72 263 -5 122 -21 164 -87 224 -37 33 -118
67 -161 67 -12 0 -25 21 -42 68 l-25 67 38 53 c61 87 73 185 32 266 -9 17 -45
66 -80 108 -83 100 -143 132 -235 126 -40 -2 -85 -14 -120 -30 l-58 -27 -63
37 c-35 20 -100 51 -145 67 l-81 30 -12 50 c-24 102 -79 172 -158 200 -55 19
-250 20 -302 1z m221 -278 c30 -116 42 -149 62 -168 12 -11 60 -32 107 -46 95
-29 170 -64 262 -124 82 -53 119 -53 219 0 l75 40 37 -42 c21 -24 38 -46 38
-49 0 -4 -22 -37 -50 -75 -63 -86 -70 -120 -40 -188 12 -28 37 -95 54 -149 41
-126 57 -142 172 -171 l89 -22 3 -61 3 -61 -91 -22 c-117 -29 -135 -43 -161
-133 -12 -40 -39 -112 -61 -160 -50 -110 -48 -130 23 -232 l52 -76 -39 -42
c-21 -23 -39 -43 -39 -44 0 -1 -41 19 -90 43 -105 53 -129 53 -213 -3 -66 -43
-180 -96 -247 -113 -102 -27 -126 -49 -145 -135 -6 -27 -15 -67 -21 -87 l-10
-38 -59 0 -59 0 -10 38 c-5 20 -15 62 -22 92 -16 71 -48 103 -124 124 -109 31
-160 55 -320 151 -55 34 -78 31 -175 -16 l-85 -41 -37 41 c-21 22 -38 44 -38
48 0 5 22 39 50 77 67 91 71 120 31 210 -17 39 -43 109 -59 155 -33 102 -47
114 -165 142 l-88 21 3 61 3 61 88 22 c117 29 140 51 166 157 6 27 30 89 52
139 51 112 49 133 -21 229 l-51 70 36 45 c20 24 40 44 45 44 5 0 44 -18 87
-41 93 -49 135 -49 204 -2 69 48 157 89 251 117 109 34 129 55 153 163 9 43
19 81 22 86 2 4 31 7 63 7 l59 0 11 -42z"/>
<path d="M3010 4169 c-77 -15 -187 -76 -250 -139 -271 -271 -150 -734 219
-844 32 -9 91 -16 141 -16 147 0 256 44 356 144 201 201 201 519 1 719 -118
117 -296 169 -467 136z m191 -254 c90 -31 157 -113 174 -212 16 -96 -52 -216
-149 -263 -58 -27 -154 -27 -212 0 -83 41 -154 149 -154 235 0 56 33 128 79
175 74 74 168 97 262 65z"/>
<path d="M1505 2224 c-225 -32 -372 -76 -550 -163 -128 -63 -241 -133 -341
-212 -34 -26 -90 -62 -125 -79 -35 -18 -146 -75 -245 -127 -202 -105 -222
-124 -212 -199 6 -41 623 -1209 661 -1252 29 -32 87 -47 126 -34 16 6 142 81
280 166 202 127 256 156 285 156 25 0 90 -26 209 -84 316 -154 578 -246 802
-281 356 -56 941 82 1470 346 326 164 607 353 905 610 250 215 306 292 317
432 13 170 -84 323 -252 399 -68 30 -209 37 -289 14 -80 -24 -601 -319 -839
-476 -82 -54 -145 -90 -142 -81 30 76 7 185 -51 245 -82 84 -184 116 -449 140
-252 23 -440 59 -548 105 -26 11 -85 56 -137 105 -130 121 -303 206 -515 251
-70 15 -303 27 -360 19z m220 -254 c211 -24 359 -88 495 -215 51 -47 117 -98
148 -114 126 -63 323 -110 567 -136 266 -27 327 -35 362 -50 l35 -15 -22 -30
c-26 -36 -107 -99 -169 -130 -255 -128 -575 -153 -866 -69 -136 40 -187 27
-219 -52 -20 -49 -9 -103 26 -136 58 -54 213 -90 444 -102 386 -21 766 29
1021 135 50 20 212 114 387 223 166 103 388 236 495 295 193 108 193 108 251
104 99 -7 171 -84 155 -166 -8 -43 -76 -117 -230 -249 -597 -516 -1309 -847
-1943 -905 -118 -11 -145 -10 -238 6 -208 35 -404 106 -729 264 l-199 97 -91
4 -90 3 -253 470 c-203 377 -251 473 -241 484 19 23 170 111 271 159 170 80
332 121 518 133 14 1 66 -3 115 -8z m-891 -896 c144 -263 245 -459 240 -464
-26 -26 -238 -150 -245 -143 -13 14 -502 934 -498 937 6 6 243 125 249 125 3
1 117 -204 254 -455z"/>
</g>
</svg>
